classDiagram
  direction TB
  Entity <|-- VirtualEntity
  VirtualEntity <|-- AbstractCostRecord
  AbstractCostRecord <|-- CostAssembly
  AbstractCostRecord <|-- CostItem
  VirtualEntity <|-- AbstractTimeRecord
  AbstractTimeRecord <|-- TimeItem
  TimeItem <|-- Milestone
  AbstractTimeRecord <|-- TimePlan
  VirtualEntity <|-- ConnectionVirtual
  VirtualEntity <|-- Material
  VirtualEntity <|-- Space
  VirtualEntity <|-- SpatialContext
  SpatialContext <|-- BuiltAssetContext
  BuiltAssetContext <|-- BuildingContext
  BuiltAssetContext <|-- CivilStructureContext
  SpatialContext <|-- LegalSiteContext
  SpatialContext <|-- LevelContext
  SpatialContext <|-- PerimeterContext
  SpatialContext <|-- ProjectContext
  SpatialContext <|-- ZoneContext
  VirtualEntity <|-- System
  VirtualEntity <|-- TimeDependency
